<svg xmlns="http://www.w3.org/2000/svg" viewBox="0 0 50.35 76.12"><defs><style>.cls-1{fill:#123444;}.cls-2{fill:#c32370;}.cls-3{fill:#1d4d6b;}.cls-4{fill:#1d4259;}.cls-5{fill:#4b6b99;}.cls-6{fill:#343535;}.cls-7{fill:#3f5679;}.cls-8{fill:#6eb2d7;}.cls-9{fill:#325f8a;}.cls-10{fill:#529ab9;}</style></defs><g id="Layer_2" data-name="Layer 2"><g id="Layer_1-2" data-name="Layer 1"><g id="Layer_2-2" data-name="Layer 2-2"><g id="Layer_1-2-2" data-name="Layer 1-2-2"><polygon class="cls-1" points="0.75 43.76 2.6 42.97 25.17 33.15 49.59 43.76 40.41 62.73 17.99 65.89 1.13 47.67 0.75 43.76"/><path class="cls-2" d="M44.51,32.1a25,25,0,0,0-16-8.85c-.15,0-.26,0-.41,0a25.06,25.06,0,0,0-5.87,0c-.15,0-.27,0-.42,0a25.06,25.06,0,0,0-16,8.85h0l-1,1.69-1.7,2.82L1.88,38.68h0a.26.26,0,0,1-.07.15v0l2.71,1.62,17.3,10.23,3.35,2V28.22l-3.35,1.51V26.08l3.35-1.51,3.35,1.51,17,7.71Z"/><path class="cls-3" d="M50.35,49.86a26.92,26.92,0,0,1-9.86,20.65,25.91,25.91,0,0,1-7.94,4.41,23.18,23.18,0,0,1-7.34,1.2C11.29,76.12,0,63.74,0,49.86a25.1,25.1,0,0,1,.75-6.1L25.21,58.21,49.63,43.76A27.2,27.2,0,0,1,50.35,49.86Z"/><polygon points="22.24 23.18 25.17 24.53 21.82 26.04 21.82 23.03 22.24 23.18"/><polygon points="21.82 29.73 25.17 28.18 25.17 52.64 21.82 50.68 21.82 29.73"/><polygon class="cls-4" points="25.17 28.18 25.17 52.64 48.58 38.83 25.17 28.18"/><polygon class="cls-5" points="25.17 0 25.17 28.18 48.58 38.83 25.17 0"/><path class="cls-6" d="M25.17,28.18V52.64l-3.35-2-20-11.85h0a.3.3,0,0,1,.07-.15h0l2.94-4.85,17-7.72V29.8Z"/><polygon class="cls-7" points="25.17 28.18 25.17 52.64 21.82 50.68 1.81 38.83 1.77 38.83 1.81 38.79 21.82 29.73 25.17 28.18"/><polygon class="cls-8" points="25.17 0 25.17 28.18 1.77 38.83 25.17 0"/><path class="cls-9" d="M15.69,74.13l1,.45C16.41,74.43,16.07,74.28,15.69,74.13Z"/><path class="cls-9" d="M16.74,74.54a10.19,10.19,0,0,0,1.1.38C17.46,74.8,17.12,74.69,16.74,74.54Z"/><path class="cls-9" d="M18.78,75.22c.3.07.56.15.82.22Z"/><path class="cls-8" d="M.75,43.76,25.17,58.21a26.33,26.33,0,0,1-1.77,6.4c-1.95,4.74-5.9,9.7-13.54,5.9h0A26.87,26.87,0,0,1,0,49.82,25.78,25.78,0,0,1,.75,43.76Z"/><path class="cls-10" d="M40.41,70.55h0c-.15.11,0,0-.49.42l-.22.15-.34.22-.42.3-.48.34a4.28,4.28,0,0,0-.42.26l-.26.19a2.61,2.61,0,0,0-.27.19s-.11.11-.15.11c.15-.11-.18.08-.33.19a2.57,2.57,0,0,0-.49.27l-.53.26-.23.11c-.15.08-.07,0-.22.11a4.36,4.36,0,0,1-.53.27,6.43,6.43,0,0,1-.64.3c.64-.3,0,0-.34.15.34-.15-.6.23-1,.38-.15,0-1,.3-1.13.33l-.49.16-.83.22c-.11,0-.22,0-.3.08l-.19,0-.45.12c-.15,0-.26,0-.41.07s-.27,0-.38.08-.3,0-.41.07a.3.3,0,0,0-.19,0L28,76h-.15c-.12,0-.23,0-.34,0s-.3,0-.45,0H23.18c-.15,0-.3,0-.45,0a1.27,1.27,0,0,1-.34,0h-.15c-.11,0-.23,0-.3,0a.26.26,0,0,1-.19,0,1.54,1.54,0,0,1-.42-.07,1.23,1.23,0,0,1-.37-.08,3.32,3.32,0,0,0-.42-.07l-.45-.12-.19,0a.84.84,0,0,1-.3-.08c-.3-.07-.56-.15-.82-.22l-.49-.16a1.7,1.7,0,0,1-.45-.15c-.38-.11-.72-.26-1.1-.37a11,11,0,0,1-1-.45c-.15-.08-.34-.15-.53-.23a3.16,3.16,0,0,1-.52-.26,2.91,2.91,0,0,1-.49-.27h0l-.49-.26a2.14,2.14,0,0,1-.38-.23c-.37-.22-.6-.37-.37-.22l-.23-.15-.41-.27-.15-.07-.38-.26c-.15-.12-.3-.19-.45-.3s-.34-.23-.49-.34-.3-.27-.41-.34l-.16-.11-.37-.31h0c7.64,3.8,11.55-1.24,13.51-5.94a29.65,29.65,0,0,0,1.77-6.4,27.31,27.31,0,0,0,1.76,6.47C28.94,69.31,32.77,74.31,40.41,70.55Z"/><path class="cls-9" d="M30.74,75.44l.83-.22Z"/><path class="cls-9" d="M32.51,74.92c.38-.12.72-.23,1.09-.38C33.23,74.69,32.89,74.8,32.51,74.92Z"/><path class="cls-9" d="M33.53,74.58c.33-.15.79-.3,1.12-.49C34.28,74.28,33.86,74.43,33.53,74.58Z"/><path class="cls-5" d="M50.35,49.86a26.92,26.92,0,0,1-9.86,20.65c-7.64,3.8-11.59-1.2-13.55-5.9a29.65,29.65,0,0,1-1.77-6.4L49.59,43.76A25.61,25.61,0,0,1,50.35,49.86Z"/></g></g></g></g></svg>
